<svg width="25" height="26" viewBox="0 0 25 26" fill="none" xmlns="http://www.w3.org/2000/svg">
<path d="M9.0359 6.5C10.5755 3.83333 14.4245 3.83333 15.9641 6.5L19.8612 13.25C21.4008 15.9167 19.4763 19.25 16.3971 19.25H8.60289C5.52368 19.25 3.59918 15.9167 5.13878 13.25L9.0359 6.5Z" fill="white"/>
<path d="M12.5595 16.2721C13.0511 16.2721 13.733 16.1761 14.6054 15.984C14.8496 15.9254 15.0221 15.8278 15.123 15.6911C15.2272 15.5544 15.2793 15.3379 15.2793 15.0417V12.9909C15.2793 12.5514 15.1019 12.3317 14.747 12.3317H12.8574C12.7142 12.3317 12.6019 12.3838 12.5205 12.4879C12.4424 12.5889 12.4033 12.7044 12.4033 12.8346C12.4033 12.9746 12.4456 13.0934 12.5302 13.1911C12.6149 13.2855 12.7304 13.3327 12.8769 13.3327H13.8974V14.9977C13.4677 15.0986 13.0446 15.1491 12.6279 15.1491C11.1924 15.1491 10.4746 14.2946 10.4746 12.5856C10.4746 12.1917 10.5153 11.8418 10.5966 11.5358C10.678 11.2298 10.805 10.9629 10.9775 10.735C11.15 10.5039 11.3795 10.3281 11.666 10.2077C11.9524 10.084 12.2894 10.0221 12.6767 10.0221C13.1357 10.0221 13.7037 10.1263 14.3808 10.3346C14.4297 10.3607 14.485 10.3737 14.5468 10.3737C14.6901 10.3737 14.8073 10.3167 14.8984 10.2028C14.9896 10.0856 15.0351 9.95377 15.0351 9.80728C15.0351 9.71614 15.0091 9.62825 14.957 9.54361C14.9049 9.45572 14.8284 9.38573 14.7275 9.33365C14.1286 9.04719 13.4271 8.90396 12.623 8.90396C12.0273 8.90396 11.4951 8.99999 11.0263 9.19205C10.5576 9.3841 10.1767 9.6494 9.88376 9.98795C9.59079 10.3265 9.36944 10.7155 9.2197 11.1549C9.06996 11.5944 8.99509 12.0729 8.99509 12.5905C8.99509 13.3815 9.1432 14.0553 9.43942 14.612C9.73565 15.1686 10.1491 15.5853 10.6797 15.862C11.2103 16.1354 11.8369 16.2721 12.5595 16.2721Z" fill="#063771"/>
</svg>
