<svg width="62" height="62" viewBox="0 0 62 62" fill="none" xmlns="http://www.w3.org/2000/svg">
<path d="M27.5359 6C29.0755 3.33333 32.9245 3.33333 34.4641 6L54.3827 40.5C55.9223 43.1667 53.9978 46.5 50.9186 46.5H11.0814C8.00221 46.5 6.07771 43.1667 7.61731 40.5L27.5359 6Z" fill="white"/>
<path d="M31.6387 40.3301C32.9167 40.3301 34.6898 40.0804 36.958 39.5811C37.5928 39.4287 38.0413 39.1748 38.3037 38.8193C38.5745 38.4639 38.71 37.901 38.71 37.1309V31.7988C38.71 30.6562 38.2487 30.085 37.3262 30.085H32.4131C32.0407 30.085 31.7487 30.2204 31.5371 30.4912C31.334 30.7536 31.2324 31.054 31.2324 31.3926C31.2324 31.7565 31.3424 32.0654 31.5625 32.3193C31.7826 32.5648 32.083 32.6875 32.4639 32.6875H35.1172V37.0166C34 37.279 32.8997 37.4102 31.8164 37.4102C28.084 37.4102 26.2178 35.1885 26.2178 30.7451C26.2178 29.721 26.3236 28.8112 26.5352 28.0156C26.7467 27.2201 27.0768 26.526 27.5254 25.9336C27.974 25.3327 28.5706 24.8757 29.3154 24.5625C30.0602 24.2409 30.9362 24.0801 31.9434 24.0801C33.1367 24.0801 34.6136 24.3509 36.374 24.8926C36.501 24.9603 36.6449 24.9941 36.8057 24.9941C37.1781 24.9941 37.4827 24.846 37.7197 24.5498C37.9567 24.2451 38.0752 23.9023 38.0752 23.5215C38.0752 23.2845 38.0075 23.056 37.8721 22.8359C37.7367 22.6074 37.5378 22.4255 37.2754 22.29C35.7181 21.5452 33.8942 21.1729 31.8037 21.1729C30.2549 21.1729 28.8711 21.4225 27.6523 21.9219C26.4336 22.4212 25.4434 23.111 24.6816 23.9912C23.9199 24.8714 23.3444 25.8828 22.9551 27.0254C22.5658 28.168 22.3711 29.4121 22.3711 30.7578C22.3711 32.8145 22.7562 34.5664 23.5264 36.0137C24.2965 37.4609 25.3714 38.5443 26.751 39.2637C28.1305 39.9746 29.7598 40.3301 31.6387 40.3301Z" fill="#063771"/>
</svg>
