<?xml version="1.0" encoding="utf-8"?>
<!-- Generator: Adobe Illustrator 23.0.1, SVG Export Plug-In . SVG Version: 6.00 Build 0)  -->
<svg version="1.1" id="Layer_1" xmlns="http://www.w3.org/2000/svg" xmlns:xlink="http://www.w3.org/1999/xlink" x="0px" y="0px"
	 viewBox="0 0 1024 1024" style="enable-background:new 0 0 1024 1024;" xml:space="preserve">
<style type="text/css">
	.st0{fill:#18589E;}
</style>
<path class="st0" d="M451.93,643.97c21.04-7.66,41.3-12.47,62.88-10.82c-10.05-8.7-21.87-12.89-34.38-13.25
	c-19.67-0.57-39.41-0.18-59.08,0.77c-28.64,1.38-57.17,2.32-85.01-6.29c-35.69-11.04-63.31-33.33-85.51-61.06
	c11.94,3.99,24.51,10.14,37.71,12.22c32.89,5.2,62.55-5.46,90.15-22.62c1.41-0.88,1.87-4.29,1.76-6.47
	c-0.76-15.08-1.7-30.15-2.77-45.21c-0.36-5.06,1.66-7.33,6.48-9.18c17.63-6.78,31.35-18.54,41.22-34.69
	c0.74-1.21,1.45-2.46,2.02-3.76c0.18-0.41-0.11-1.04-0.28-2.31c-39.04,24.97-78.5,27.82-117.78,1.62
	c-25.61-17.09-40.81-46.81-39.94-75.57c0.48-0.19,1.19-0.7,1.43-0.54c38.11,27.03,79.89,27.46,123.11,16.86
	c22.6-5.54,43.78-14.56,63.88-26.32c70.91-41.49,152.3-32.85,210.35,22.38c15.44,14.69,27.64,31.81,36.71,52.34
	c-3.09,0.22-5.46,0.53-7.83,0.53c-30.04,0.03-60.09,0.12-90.13-0.11c-3.76-0.03-8.01-0.97-11.18-2.89
	c-56.96-34.39-127,0.39-133.63,66.51c-3.85,38.4,21.96,77.06,59.64,89.33c37.91,12.34,81.36-3.52,100.84-36.84
	c0.26-0.44,0.18-1.07,0.45-2.82c-33.07,0-65.97,0-99.47,0c0-28.81,0-56.42,0-84.71c63.79,0,127.41,0,190.99,0
	c17.28,57.38-2.1,135.83-65.91,181.57C587.07,686.81,506.64,683.28,451.93,643.97z"/>
</svg>
