<svg xmlns="http://www.w3.org/2000/svg" xmlns:xlink="http://www.w3.org/1999/xlink" viewBox="0 0 3710 3710"><defs><linearGradient id="linear-gradient" x1="1590.41" y1="2591.03" x2="2178.42" y2="826.97" gradientUnits="userSpaceOnUse"><stop offset="0" stop-color="#2b3582"/><stop offset="1" stop-color="#150e42"/></linearGradient><linearGradient id="linear-gradient-2" x1="2878.46" y1="737.12" x2="-296.69" y2="4363.68" gradientUnits="userSpaceOnUse"><stop offset="0" stop-color="#fdf53f"/><stop offset="1" stop-color="#d93c65"/></linearGradient><linearGradient id="linear-gradient-3" x1="2895.75" y1="2524.88" x2="419.52" y2="3127.21" xlink:href="#linear-gradient"/></defs><title>portfliobg</title><g id="Illustration"><path d="M3036.45,2676.65c0,26-19.57,47.33-43.49,47.33H640.87c-23.92,0-43.49-21.3-43.49-47.33L577.8,1204.71c0-26,28.16-76.83,79.77-73l2298.71-64.77c30-.85,59,11.73,80.3,34.8s32.88,54.62,32.17,87.27Z" style="fill:url(#linear-gradient)"/><path d="M2993.51,2631.26c0,24.64-18.52,44.81-41.15,44.81H697.59c-22.63,0-41.15-20.17-41.15-44.81L638,1295c2.18-80.42,66.92-109.32,106.16-107.61l2203.11-64.36c21.09-.62,41.48,8.23,56.42,24.45s23.15,38.42,22.62,61.39Z" style="fill:url(#linear-gradient-2)"/><path d="M680.81,1993a3.1,3.1,0,0,1-3.1-3.06l-1.46-108.37a3.1,3.1,0,1,1,6.2-.08l1.46,108.37a3.1,3.1,0,0,1-3.06,3.14Z" style="fill:#fff"/><path d="M677.23,1727.42a3.1,3.1,0,0,1-3.1-3.05l-5.6-415c.12-28.92,8.71-51.71,25.52-67.77,27.9-26.65,69.32-25.24,71.05-25.18l703.55-20.56a3,3,0,0,1,3.19,3,3.1,3.1,0,0,1-3,3.19l-703.75,20.56c-1.89-.07-40.73-1.39-66.75,23.47-15.54,14.85-23.48,36.13-23.6,63.25l5.6,415a3.1,3.1,0,0,1-3.06,3.14Z" style="fill:#fff"/><path d="M461.75,2716.83h2758a7.5,7.5,0,0,1,7.5,7.5v114.32a7.51,7.51,0,0,1-7.51,7.51h-2758a7.51,7.51,0,0,1-7.51-7.51V2724.34a7.51,7.51,0,0,1,7.51-7.51Z" style="fill:url(#linear-gradient-3)"/></g></svg>